<svg width="102" height="50" viewBox="0 0 102 50" fill="none" xmlns="http://www.w3.org/2000/svg">
<path d="M0.519531 46.8241V41.8134H1.50391L3.55469 45.1595V41.8134H4.49463V46.8241H3.47949L1.45947 43.5565V46.8241H0.519531ZM5.53711 46.8241V41.8134H6.54883V46.8241H5.53711ZM9.84717 44.9818V44.1376H12.0278V46.1337C11.8159 46.3387 11.5083 46.5199 11.105 46.6771C10.7039 46.8321 10.2972 46.9095 9.88477 46.9095C9.36068 46.9095 8.90381 46.8002 8.51416 46.5814C8.12451 46.3604 7.83171 46.0459 7.63574 45.6381C7.43978 45.2279 7.3418 44.7824 7.3418 44.3016C7.3418 43.7798 7.45117 43.3161 7.66992 42.9105C7.88867 42.5049 8.20882 42.1939 8.63037 41.9774C8.95166 41.8111 9.35156 41.7279 9.83008 41.7279C10.4521 41.7279 10.9375 41.8589 11.2861 42.121C11.637 42.3807 11.8626 42.7408 11.9629 43.201L10.958 43.389C10.8874 43.1429 10.7541 42.9493 10.5581 42.808C10.3644 42.6644 10.1217 42.5927 9.83008 42.5927C9.38802 42.5927 9.03597 42.7328 8.77393 43.0131C8.51416 43.2933 8.38428 43.7092 8.38428 44.2606C8.38428 44.8553 8.51644 45.302 8.78076 45.6005C9.04508 45.8967 9.39144 46.0448 9.81982 46.0448C10.0317 46.0448 10.2437 46.0038 10.4556 45.9218C10.6698 45.8374 10.8532 45.736 11.0059 45.6176V44.9818H9.84717ZM12.9644 46.8241V41.8134H16.6797V42.661H13.9761V43.7719H16.4917V44.6161H13.9761V45.9799H16.7754V46.8241H12.9644ZM17.6367 46.8241V41.8134H19.7661C20.3016 41.8134 20.6901 41.8589 20.9316 41.9501C21.1755 42.0389 21.3703 42.1984 21.5161 42.4286C21.6619 42.6587 21.7349 42.9219 21.7349 43.2181C21.7349 43.5941 21.6243 43.9052 21.4033 44.1512C21.1823 44.3951 20.8519 44.5489 20.4121 44.6127C20.6309 44.7403 20.8109 44.8804 20.9521 45.0331C21.0957 45.1858 21.2882 45.4569 21.5298 45.8466L22.1416 46.8241H20.9316L20.2002 45.7338C19.9404 45.3441 19.7627 45.0992 19.667 44.9989C19.5713 44.8964 19.4699 44.8269 19.3628 44.7904C19.2557 44.7517 19.0859 44.7323 18.8535 44.7323H18.6484V46.8241H17.6367ZM18.6484 43.9325H19.397C19.8823 43.9325 20.1854 43.912 20.3062 43.871C20.4269 43.83 20.5215 43.7593 20.5898 43.6591C20.6582 43.5588 20.6924 43.4335 20.6924 43.2831C20.6924 43.1145 20.6468 42.9789 20.5557 42.8763C20.4668 42.7715 20.3403 42.7054 20.1763 42.6781C20.0942 42.6667 19.8481 42.661 19.438 42.661H18.6484V43.9325ZM22.6611 46.8241V41.8134H23.6729V46.8241H22.6611ZM29.1587 46.8241H28.0581L27.6206 45.6859H25.6177L25.2041 46.8241H24.1309L26.0825 41.8134H27.1523L29.1587 46.8241ZM27.2959 44.8417L26.6055 42.9823L25.9287 44.8417H27.2959ZM31.1309 45.1937L32.1152 45.098C32.1745 45.4284 32.2941 45.6711 32.4741 45.826C32.6564 45.981 32.9014 46.0585 33.209 46.0585C33.5348 46.0585 33.7798 45.9901 33.9438 45.8534C34.1102 45.7144 34.1934 45.5526 34.1934 45.368C34.1934 45.2496 34.158 45.1493 34.0874 45.0673C34.019 44.983 33.8983 44.91 33.7251 44.8485C33.6066 44.8075 33.3366 44.7346 32.915 44.6298C32.3727 44.4953 31.9922 44.3301 31.7734 44.1342C31.4658 43.8584 31.312 43.5223 31.312 43.1259C31.312 42.8706 31.3838 42.6325 31.5273 42.4115C31.6732 42.1882 31.8817 42.0184 32.1528 41.9022C32.4263 41.786 32.7555 41.7279 33.1406 41.7279C33.7695 41.7279 34.2424 41.8658 34.5591 42.1415C34.8781 42.4172 35.0456 42.7852 35.0615 43.2455L34.0498 43.2899C34.0065 43.0324 33.9131 42.8479 33.7695 42.7362C33.6283 42.6223 33.4152 42.5653 33.1304 42.5653C32.8364 42.5653 32.6063 42.6257 32.4399 42.7465C32.3328 42.8239 32.2793 42.9276 32.2793 43.0575C32.2793 43.176 32.3294 43.2774 32.4297 43.3617C32.5573 43.4688 32.8672 43.5804 33.3594 43.6967C33.8516 43.8129 34.215 43.9336 34.4497 44.059C34.6867 44.182 34.8713 44.3518 35.0034 44.5682C35.1379 44.7824 35.2051 45.0479 35.2051 45.3646C35.2051 45.6517 35.1253 45.9206 34.9658 46.1713C34.8063 46.4219 34.5807 46.6088 34.2891 46.7318C33.9974 46.8526 33.634 46.913 33.1987 46.913C32.5653 46.913 32.0788 46.7671 31.7393 46.4755C31.3997 46.1815 31.1969 45.7543 31.1309 45.1937ZM37.1841 46.8241V42.661H35.6973V41.8134H39.6792V42.661H38.1958V46.8241H37.1841ZM44.3345 46.8241H43.2339L42.7964 45.6859H40.7935L40.3799 46.8241H39.3066L41.2583 41.8134H42.3281L44.3345 46.8241ZM42.4717 44.8417L41.7812 42.9823L41.1045 44.8417H42.4717ZM44.8779 46.8241V41.8134H47.0073C47.5428 41.8134 47.9313 41.8589 48.1729 41.9501C48.4167 42.0389 48.6115 42.1984 48.7573 42.4286C48.9032 42.6587 48.9761 42.9219 48.9761 43.2181C48.9761 43.5941 48.8656 43.9052 48.6445 44.1512C48.4235 44.3951 48.0931 44.5489 47.6533 44.6127C47.8721 44.7403 48.0521 44.8804 48.1934 45.0331C48.3369 45.1858 48.5295 45.4569 48.771 45.8466L49.3828 46.8241H48.1729L47.4414 45.7338C47.1816 45.3441 47.0039 45.0992 46.9082 44.9989C46.8125 44.8964 46.7111 44.8269 46.604 44.7904C46.4969 44.7517 46.3271 44.7323 46.0947 44.7323H45.8896V46.8241H44.8779ZM45.8896 43.9325H46.6382C47.1235 43.9325 47.4266 43.912 47.5474 43.871C47.6681 43.83 47.7627 43.7593 47.8311 43.6591C47.8994 43.5588 47.9336 43.4335 47.9336 43.2831C47.9336 43.1145 47.888 42.9789 47.7969 42.8763C47.708 42.7715 47.5815 42.7054 47.4175 42.6781C47.3354 42.6667 47.0894 42.661 46.6792 42.661H45.8896V43.9325ZM51.061 46.8241V42.661H49.5742V41.8134H53.5562V42.661H52.0728V46.8241H51.061ZM54.2056 41.8134H55.2173V44.5272C55.2173 44.9579 55.2298 45.237 55.2549 45.3646C55.2982 45.5697 55.4007 45.7349 55.5625 45.8602C55.7266 45.9833 55.9499 46.0448 56.2324 46.0448C56.5195 46.0448 56.736 45.9867 56.8818 45.8705C57.0277 45.752 57.1154 45.6073 57.145 45.4364C57.1746 45.2655 57.1895 44.9818 57.1895 44.5853V41.8134H58.2012V44.4452C58.2012 45.0468 58.1738 45.4717 58.1191 45.7201C58.0645 45.9685 57.9631 46.1781 57.8149 46.349C57.6691 46.5199 57.4731 46.6566 57.2271 46.7592C56.981 46.8594 56.6597 46.9095 56.2632 46.9095C55.7847 46.9095 55.4212 46.8549 55.1729 46.7455C54.9268 46.6338 54.7319 46.4903 54.5884 46.3148C54.4448 46.1371 54.3503 45.9514 54.3047 45.7577C54.2386 45.4706 54.2056 45.0468 54.2056 44.4862V41.8134ZM59.271 46.8241V41.8134H60.8945C61.5098 41.8134 61.9108 41.8384 62.0977 41.8885C62.3848 41.9637 62.6252 42.1278 62.8188 42.3807C63.0125 42.6314 63.1094 42.9561 63.1094 43.3549C63.1094 43.6625 63.0535 43.9211 62.9419 44.1307C62.8302 44.3404 62.6878 44.5056 62.5146 44.6263C62.3438 44.7448 62.1694 44.8234 61.9917 44.8622C61.7502 44.91 61.4004 44.934 60.9424 44.934H60.2827V46.8241H59.271ZM60.2827 42.661V44.0829H60.8364C61.2352 44.0829 61.5018 44.0567 61.6362 44.0043C61.7707 43.9519 61.8755 43.8698 61.9507 43.7582C62.0282 43.6465 62.0669 43.5166 62.0669 43.3685C62.0669 43.1862 62.0133 43.0358 61.9062 42.9174C61.7992 42.7989 61.6636 42.7248 61.4995 42.6952C61.3787 42.6724 61.1361 42.661 60.7715 42.661H60.2827ZM63.6836 45.1937L64.668 45.098C64.7272 45.4284 64.8468 45.6711 65.0269 45.826C65.2091 45.981 65.4541 46.0585 65.7617 46.0585C66.0876 46.0585 66.3325 45.9901 66.4966 45.8534C66.6629 45.7144 66.7461 45.5526 66.7461 45.368C66.7461 45.2496 66.7108 45.1493 66.6401 45.0673C66.5718 44.983 66.451 44.91 66.2778 44.8485C66.1593 44.8075 65.8893 44.7346 65.4678 44.6298C64.9255 44.4953 64.5449 44.3301 64.3262 44.1342C64.0186 43.8584 63.8647 43.5223 63.8647 43.1259C63.8647 42.8706 63.9365 42.6325 64.0801 42.4115C64.2259 42.1882 64.4344 42.0184 64.7056 41.9022C64.979 41.786 65.3083 41.7279 65.6934 41.7279C66.3223 41.7279 66.7951 41.8658 67.1118 42.1415C67.4308 42.4172 67.5983 42.7852 67.6143 43.2455L66.6025 43.2899C66.5592 43.0324 66.4658 42.8479 66.3223 42.7362C66.181 42.6223 65.9679 42.5653 65.6831 42.5653C65.3892 42.5653 65.159 42.6257 64.9927 42.7465C64.8856 42.8239 64.832 42.9276 64.832 43.0575C64.832 43.176 64.8822 43.2774 64.9824 43.3617C65.11 43.4688 65.4199 43.5804 65.9121 43.6967C66.4043 43.8129 66.7677 43.9336 67.0024 44.059C67.2394 44.182 67.424 44.3518 67.5562 44.5682C67.6906 44.7824 67.7578 45.0479 67.7578 45.3646C67.7578 45.6517 67.6781 45.9206 67.5186 46.1713C67.359 46.4219 67.1335 46.6088 66.8418 46.7318C66.5501 46.8526 66.1867 46.913 65.7515 46.913C65.118 46.913 64.6315 46.7671 64.292 46.4755C63.9525 46.1815 63.7497 45.7543 63.6836 45.1937ZM70.5571 46.8241V41.8134H72.1807C72.7959 41.8134 73.1969 41.8384 73.3838 41.8885C73.6709 41.9637 73.9113 42.1278 74.105 42.3807C74.2987 42.6314 74.3955 42.9561 74.3955 43.3549C74.3955 43.6625 74.3397 43.9211 74.228 44.1307C74.1164 44.3404 73.974 44.5056 73.8008 44.6263C73.6299 44.7448 73.4556 44.8234 73.2778 44.8622C73.0363 44.91 72.6865 44.934 72.2285 44.934H71.5688V46.8241H70.5571ZM71.5688 42.661V44.0829H72.1226C72.5213 44.0829 72.7879 44.0567 72.9224 44.0043C73.0568 43.9519 73.1616 43.8698 73.2368 43.7582C73.3143 43.6465 73.353 43.5166 73.353 43.3685C73.353 43.1862 73.2995 43.0358 73.1924 42.9174C73.0853 42.7989 72.9497 42.7248 72.7856 42.6952C72.6649 42.6724 72.4222 42.661 72.0576 42.661H71.5688ZM75.021 44.3495C75.021 43.8391 75.0973 43.4107 75.25 43.0643C75.3639 42.8091 75.5189 42.5801 75.7148 42.3773C75.9131 42.1745 76.1296 42.0241 76.3643 41.9261C76.6764 41.794 77.0365 41.7279 77.4443 41.7279C78.1826 41.7279 78.7728 41.9569 79.2148 42.4149C79.6592 42.8729 79.8813 43.5098 79.8813 44.3256C79.8813 45.1345 79.6615 45.7679 79.2217 46.226C78.7819 46.6817 78.194 46.9095 77.458 46.9095C76.7129 46.9095 76.1204 46.6828 75.6807 46.2294C75.2409 45.7736 75.021 45.147 75.021 44.3495ZM76.0635 44.3153C76.0635 44.8827 76.1945 45.3134 76.4565 45.6073C76.7186 45.899 77.0513 46.0448 77.4546 46.0448C77.8579 46.0448 78.1883 45.9001 78.4458 45.6107C78.7056 45.3191 78.8354 44.8827 78.8354 44.3016C78.8354 43.7274 78.709 43.299 78.4561 43.0165C78.2054 42.7339 77.8716 42.5927 77.4546 42.5927C77.0376 42.5927 76.7015 42.7362 76.4463 43.0233C76.1911 43.3081 76.0635 43.7388 76.0635 44.3153ZM80.6777 46.8241V41.8134H82.8071C83.3426 41.8134 83.7311 41.8589 83.9727 41.9501C84.2165 42.0389 84.4113 42.1984 84.5571 42.4286C84.703 42.6587 84.7759 42.9219 84.7759 43.2181C84.7759 43.5941 84.6654 43.9052 84.4443 44.1512C84.2233 44.3951 83.8929 44.5489 83.4531 44.6127C83.6719 44.7403 83.8519 44.8804 83.9932 45.0331C84.1367 45.1858 84.3293 45.4569 84.5708 45.8466L85.1826 46.8241H83.9727L83.2412 45.7338C82.9814 45.3441 82.8037 45.0992 82.708 44.9989C82.6123 44.8964 82.5109 44.8269 82.4038 44.7904C82.2967 44.7517 82.127 44.7323 81.8945 44.7323H81.6895V46.8241H80.6777ZM81.6895 43.9325H82.438C82.9233 43.9325 83.2264 43.912 83.3472 43.871C83.4679 43.83 83.5625 43.7593 83.6309 43.6591C83.6992 43.5588 83.7334 43.4335 83.7334 43.2831C83.7334 43.1145 83.6878 42.9789 83.5967 42.8763C83.5078 42.7715 83.3813 42.7054 83.2173 42.6781C83.1353 42.6667 82.8892 42.661 82.479 42.661H81.6895V43.9325ZM86.8608 46.8241V42.661H85.374V41.8134H89.356V42.661H87.8726V46.8241H86.8608ZM94.0112 46.8241H92.9106L92.4731 45.6859H90.4702L90.0566 46.8241H88.9834L90.9351 41.8134H92.0049L94.0112 46.8241ZM92.1484 44.8417L91.458 42.9823L90.7812 44.8417H92.1484ZM94.5786 46.8241V41.8544H95.5903V45.9799H98.106V46.8241H94.5786Z" fill="black"/>
<path d="M97.3157 0.0235453L88.8878 2.09885C88.7795 2.12251 88.6827 2.18295 88.6139 2.2699C88.5452 2.35685 88.5086 2.46493 88.5105 2.57578C88.5124 2.68663 88.5527 2.7934 88.6244 2.87793C88.6961 2.96246 88.7949 3.01955 88.904 3.03947C89.8284 3.25778 92.8363 4.00705 93.5128 4.7105C94.1893 5.41394 94.8119 8.44873 94.9924 9.38127C95.0093 9.46617 95.0484 9.54508 95.1056 9.61001C95.1629 9.67493 95.2363 9.72355 95.3184 9.75092C95.4005 9.77829 95.4884 9.78345 95.5732 9.76587C95.6579 9.74828 95.7365 9.70857 95.801 9.65079C95.8555 9.58927 95.896 9.51661 95.9196 9.43786L98.3453 1.09893C98.3865 0.954153 98.3892 0.801106 98.353 0.654985C98.3168 0.508865 98.2429 0.374769 98.1388 0.266029C98.0347 0.157289 97.904 0.0776902 97.7596 0.0351508C97.6151 -0.00738845 97.4621 -0.011391 97.3157 0.0235453Z" fill="#1B834D"/>
<path d="M96.3373 1.81855L92.9926 2.60016C92.9616 2.60736 92.9329 2.62218 92.909 2.64328C92.8856 2.66707 92.8689 2.69674 92.8609 2.72917C92.8529 2.76161 92.8537 2.79562 92.8634 2.82761C92.873 2.8596 92.8911 2.8884 92.9157 2.91098C92.9404 2.93356 92.9706 2.94909 93.0034 2.95592C93.3537 3.03139 94.3348 3.45454 94.5935 3.71597C94.8523 3.9774 95.27 4.96115 95.3428 5.31152C95.3492 5.34445 95.3645 5.37502 95.3869 5.39998C95.4093 5.42495 95.4381 5.44338 95.4702 5.45333C95.5022 5.46328 95.5363 5.46437 95.569 5.45648C95.6016 5.4486 95.6314 5.43204 95.6554 5.40855C95.6764 5.38422 95.692 5.35576 95.7012 5.325L96.6176 2.03416C96.6742 1.79429 96.5718 1.75656 96.3373 1.81855Z" fill="#1B744D"/>
<path d="M0.00291443 37.8318V38.864H7.19909V38.3466C4.99981 38.2693 2.80502 38.1184 0.614721 37.8938C0.409886 37.8803 0.205054 37.8587 0.00291443 37.8318Z" fill="#1B834D"/>
<path d="M39.3797 25.4096C40.1685 26.1992 41.1181 26.8095 42.1639 27.1992C43.2797 27.6448 44.7549 27.8676 46.5894 27.8676H52.4326C55.9633 26.4428 59.441 24.8966 62.8657 23.2292C61.6283 22.7588 60.3106 22.5353 58.9873 22.5716H46.9802C46.6473 22.5838 46.3144 22.5493 45.9911 22.4692C45.7747 22.4148 45.5724 22.3146 45.3981 22.1754C45.1785 22.0027 45.0021 21.7814 44.8828 21.5287C44.7635 21.2761 44.7046 20.9992 44.7108 20.72C44.7036 20.458 44.75 20.1972 44.8473 19.9539C44.9447 19.7105 45.0909 19.4897 45.2768 19.305C45.4554 19.1334 45.6686 19.002 45.9021 18.9196C46.2513 18.8136 46.6156 18.7662 46.9802 18.7794H70.8731V19.1136L71.4822 18.7794C72.5118 18.2134 73.5351 17.6394 74.5521 17.0572C76.7837 15.7797 78.991 14.4617 81.1742 13.1033C82.0016 12.5886 82.8236 12.0711 83.643 11.5428H46.5759C44.7432 11.5428 43.2743 11.7647 42.1693 12.2085C41.1357 12.6071 40.1986 13.2208 39.4202 14.0089C38.6945 14.7592 38.1126 15.6361 37.7033 16.5963C37.2812 17.5794 37.0674 18.6394 37.0753 19.7093C37.0638 20.7834 37.2701 21.8488 37.6818 22.8411C38.0832 23.7953 38.659 24.6664 39.3797 25.4096Z" fill="#1B834D"/>
<path d="M65.577 25.0377L65.4773 24.938C63.208 25.9873 60.9188 26.9863 58.61 27.935C58.7177 27.9512 58.824 27.9755 58.928 28.0078C59.2006 28.0978 59.4443 28.2587 59.6341 28.474C59.8227 28.6653 59.9701 28.893 60.0675 29.1433C60.1648 29.3936 60.2099 29.6611 60.2001 29.9295C60.2155 30.3112 60.1081 30.6879 59.8937 31.0042C59.6793 31.3205 59.3692 31.5597 59.0088 31.6867C58.5848 31.8255 58.1394 31.8875 57.6936 31.87H48.0232L47.9343 31.8996C44.8914 32.9103 41.8162 33.8294 38.7086 34.6218C37.0484 35.0422 35.3854 35.4438 33.7144 35.8077C32.2536 36.1284 30.7874 36.4222 29.3159 36.6782C28.0815 36.892 26.8444 37.0888 25.6046 37.2685C24.9901 37.3601 24.3702 37.4464 23.753 37.538C24.2744 38.0942 24.9047 38.5373 25.6046 38.8398L25.6747 38.8694H58.9873C60.3939 38.9103 61.7929 38.6483 63.0894 38.1013C64.1629 37.6226 65.1214 36.9196 65.9005 36.0395C66.5253 35.3049 67.0236 34.4715 67.3747 33.5734C68.1268 31.663 68.0988 29.5338 67.2966 27.6439C66.8864 26.678 66.3037 25.7948 65.577 25.0377Z" fill="#1B834D"/>
<path d="M29.0086 35.0908C30.6823 34.7512 32.3426 34.3631 33.9974 33.9399C33.9974 33.8186 33.9974 33.6946 33.9974 33.568V11.5347H26.8471V29.2018C26.8471 29.6869 26.6584 29.9295 26.2811 29.9295C26.157 29.9309 26.0338 29.9099 25.9172 29.8675C25.787 29.8085 25.6752 29.7154 25.5938 29.5979L12.2472 13.637C11.5625 12.7343 10.6655 12.0147 9.63575 11.5422C8.60603 11.0696 7.47553 10.8588 6.3447 10.9283C5.48381 10.9216 4.62631 11.0369 3.79773 11.2706C3.04831 11.4837 2.35711 11.8643 1.77634 12.3837C1.18945 12.9287 0.741277 13.606 0.469165 14.3593C0.134203 15.3108 -0.0238174 16.3156 0.00290117 17.324V37.0475C0.229298 37.069 0.458383 37.0879 0.687475 37.1041C2.85441 37.264 5.02495 37.3538 7.19907 37.3736V20.348C7.19284 20.2449 7.20753 20.1416 7.24227 20.0444C7.27701 19.9471 7.33107 19.8579 7.40121 19.782C7.46393 19.7169 7.53935 19.6654 7.6228 19.6306C7.70625 19.5959 7.79596 19.5786 7.88635 19.5799C8.01388 19.5909 8.13758 19.6291 8.24914 19.6918C8.36071 19.7546 8.45756 19.8405 8.5332 19.9437L22.6183 36.2308C23.6155 36.0835 24.6109 35.92 25.6046 35.7403C26.7419 35.5409 27.8766 35.3243 29.0086 35.0908Z" fill="#1B834D"/>
<path d="M101.189 17.8011C100.669 16.5627 99.9136 15.4369 98.9652 14.486C98.0109 13.5481 96.8756 12.8145 95.6285 12.3298C94.3222 11.8034 92.6988 11.541 90.7583 11.5428H89.9497C87.6139 13.0306 85.2439 14.4743 82.8398 15.874C78.921 18.1559 74.9312 20.3166 70.8704 22.3559V38.8721H78.1879V31.9994H90.761C92.8632 31.9994 94.6286 31.6688 96.057 31.0075C97.4308 30.3887 98.647 29.4673 99.6147 28.3123C100.367 27.3999 100.961 26.3677 101.372 25.2587C101.791 24.1383 102.004 22.9512 102 21.7549C102.001 20.3956 101.725 19.0503 101.189 17.8011ZM94.0734 24C93.7649 24.415 93.3533 24.742 92.8794 24.9487C92.2585 25.2026 91.5903 25.3203 90.92 25.2937H78.1906V19.3643C78.1906 18.987 78.3702 18.7983 78.7296 18.7983H90.9388C91.5938 18.7758 92.2465 18.8858 92.8578 19.1217C93.3244 19.3129 93.735 19.6189 94.0518 20.0111C94.5088 20.6002 94.7512 21.3275 94.7391 22.073C94.7381 22.7665 94.5057 23.44 94.0788 23.9865L94.0734 24Z" fill="#1B834D"/>
</svg>
